<svg viewBox="0 0 20 20" fill="none" xmlns="http://www.w3.org/2000/svg">
<path d="M12.916 8.54163C13.9516 8.54163 14.791 7.70216 14.791 6.66663C14.791 5.63109 13.9516 4.79163 12.916 4.79163M7.08268 8.54163C6.04715 8.54163 5.20768 7.70216 5.20768 6.66663C5.20768 5.63109 6.04715 4.79163 7.08268 4.79163M6.45768 15.8333V12.7083C6.45768 11.7878 7.20387 11.0416 8.12435 11.0416L11.8743 11.0416C12.7948 11.0416 13.541 11.7878 13.541 12.7083V15.8333M14.5827 11.0416H14.791C15.7115 11.0416 16.4577 11.7878 16.4577 12.7083V15M5.41602 11.0416H5.20768C4.28721 11.0416 3.54102 11.7878 3.54102 12.7083L3.54102 15M11.8743 6.66663C11.8743 7.70216 11.0349 8.54163 9.99935 8.54163C8.96382 8.54163 8.12435 7.70216 8.12435 6.66663C8.12435 5.63109 8.96382 4.79163 9.99935 4.79163C11.0349 4.79163 11.8743 5.63109 11.8743 6.66663Z" stroke="currentColor" stroke-opacity="0.82" stroke-width="1.5" stroke-linecap="round" stroke-linejoin="round"/>
</svg>
