<svg viewBox="0 0 121 100" fill="none" xmlns="http://www.w3.org/2000/svg">
<path fill-rule="evenodd" clip-rule="evenodd" d="M108.051 8.0505C105.956 5.2113 101.43 1.5984 94.5252 1.5035C90.0732 1.4306 85.6642 3.3355 82.8972 6.8243L82.8612 6.8754C81.2552 8.9045 80.1672 11.3057 79.7082 13.8603L67.6052 81.067L66.6202 86.534C65.2192 94.336 58.4377 100 50.518 100H16.3429C5.93413 100 -1.81767 90.388 0.372127 80.213L14.8173 12.9407C16.3648 5.7295 22.518 0.481699 29.8027 0.036499C30.1458 0.00729902 30.4815 0 30.8246 0H93.9922C99.8972 0 105.189 3.1677 108.058 8.0505H108.051Z" fill="url(#paint0_linear_154_550)"/>
<path d="M108.051 8.0505C108.051 8.0505 109.226 9.8022 109.978 13.021C112.81 25.0858 120.087 61.5359 120.087 61.5359C122.204 71.6879 114.467 81.2279 104.095 81.2279H69.9714C69.1754 81.2279 68.3724 81.1689 67.6064 81.0599L79.7084 13.853C80.1684 11.3058 81.2484 8.9045 82.8614 6.8754L82.8984 6.82431C85.6644 3.33551 90.0735 1.4379 94.5255 1.5036C101.43 1.6057 105.956 5.2113 108.051 8.0505Z" fill="#E1EAF5"/>
<defs>
<linearGradient id="paint0_linear_154_550" x1="54.0217" y1="0" x2="54.0217" y2="99.993" gradientUnits="userSpaceOnUse">
<stop stop-color="#22DDBB"/>
<stop offset="1" stop-color="#83BCFF"/>
</linearGradient>
</defs>
</svg>
