<svg viewBox="0 0 20 20" fill="none" xmlns="http://www.w3.org/2000/svg">
<path d="M15.2087 6.45833H15.9587C15.9587 6.17854 15.8029 5.92201 15.5547 5.79292L15.2087 6.45833ZM10.0003 3.75L10.3463 3.08459C10.1294 2.9718 9.8712 2.9718 9.65431 3.08459L10.0003 3.75ZM4.79199 6.45833L4.44598 5.79292C4.19774 5.92201 4.04199 6.17854 4.04199 6.45833H4.79199ZM10.0003 16.4583L9.69827 17.1448C9.89074 17.2295 10.1099 17.2295 10.3024 17.1448L10.0003 16.4583ZM8.03066 9.46967C7.73776 9.17678 7.26289 9.17678 6.97 9.46967C6.6771 9.76256 6.6771 10.2374 6.97 10.5303L8.03066 9.46967ZM9.16699 11.6667L8.63666 12.197L9.16699 12.7273L9.69732 12.197L9.16699 11.6667ZM13.0307 8.86366C13.3235 8.57077 13.3235 8.0959 13.0307 7.803C12.7378 7.51011 12.2629 7.51011 11.97 7.803L13.0307 8.86366ZM15.9587 9.16667V6.45833H14.4587V9.16667H15.9587ZM15.5547 5.79292L10.3463 3.08459L9.65431 4.41541L14.8626 7.12375L15.5547 5.79292ZM9.65431 3.08459L4.44598 5.79292L5.13801 7.12375L10.3463 4.41541L9.65431 3.08459ZM4.04199 6.45833L4.04199 9.16667H5.54199L5.54199 6.45833H4.04199ZM4.04199 9.16667C4.04199 11.9516 5.49759 13.9599 6.88837 15.2394C7.58574 15.881 8.28048 16.3532 8.80065 16.6653C9.06147 16.8217 9.28039 16.9392 9.43654 17.0186C9.51467 17.0583 9.57726 17.0886 9.6217 17.1096C9.64393 17.1201 9.66164 17.1283 9.6745 17.1341C9.68093 17.1371 9.68616 17.1394 9.69013 17.1412C9.69212 17.1421 9.6938 17.1428 9.69515 17.1434C9.69583 17.1437 9.69643 17.144 9.69695 17.1442C9.69721 17.1444 9.69754 17.1445 9.69767 17.1446C9.69798 17.1447 9.69827 17.1448 10.0003 16.4583C10.3024 15.7718 10.3026 15.772 10.3029 15.7721C10.3029 15.7721 10.3031 15.7722 10.3032 15.7722C10.3034 15.7723 10.3036 15.7724 10.3036 15.7724C10.3037 15.7724 10.3035 15.7723 10.303 15.7721C10.3019 15.7716 10.2997 15.7706 10.2963 15.7691C10.2894 15.766 10.2779 15.7606 10.262 15.7531C10.2301 15.7381 10.1808 15.7143 10.1165 15.6816C9.98784 15.6161 9.79986 15.5155 9.57239 15.379C9.116 15.1052 8.50867 14.6919 7.90395 14.1356C6.69056 13.0192 5.54199 11.3818 5.54199 9.16667H4.04199ZM10.0003 16.4583C10.3024 17.1448 10.3027 17.1447 10.303 17.1446C10.3031 17.1445 10.3034 17.1444 10.3037 17.1442C10.3042 17.144 10.3048 17.1437 10.3055 17.1434C10.3069 17.1428 10.3085 17.1421 10.3105 17.1412C10.3145 17.1394 10.3197 17.1371 10.3261 17.1341C10.339 17.1283 10.3567 17.1201 10.3789 17.1096C10.4234 17.0886 10.486 17.0583 10.5641 17.0186C10.7203 16.9392 10.9392 16.8217 11.2 16.6653C11.7202 16.3532 12.4149 15.881 13.1123 15.2394C14.5031 13.9599 15.9587 11.9516 15.9587 9.16667H14.4587C14.4587 11.3818 13.3101 13.0192 12.0967 14.1356C11.492 14.6919 10.8846 15.1052 10.4283 15.379C10.2008 15.5155 10.0128 15.6161 9.88413 15.6816C9.81985 15.7143 9.77053 15.7381 9.73869 15.7531C9.72277 15.7606 9.71123 15.766 9.70438 15.7691C9.70096 15.7706 9.69871 15.7716 9.69768 15.7721C9.69717 15.7723 9.69695 15.7724 9.69705 15.7724C9.6971 15.7724 9.69722 15.7723 9.69743 15.7722C9.69753 15.7722 9.69774 15.7721 9.69779 15.7721C9.69802 15.772 9.69827 15.7718 10.0003 16.4583ZM6.97 10.5303L8.63666 12.197L9.69732 11.1363L8.03066 9.46967L6.97 10.5303ZM9.69732 12.197L13.0307 8.86366L11.97 7.803L8.63666 11.1363L9.69732 12.197Z" fill="white"/>
</svg>
