<svg viewBox="0 0 24 24" fill="none" xmlns="http://www.w3.org/2000/svg">
<path d="M16.2498 12C16.2498 14.3472 14.347 16.25 11.9998 16.25M16.2498 12C16.2498 9.65279 14.347 7.75 11.9998 7.75M16.2498 12H19.9998M7.74984 12C7.74984 14.3472 9.65263 16.25 11.9998 16.25M7.74984 12C7.74984 9.65279 9.65263 7.75 11.9998 7.75M7.74984 12H3.99984M11.9998 16.25L11.9998 20M11.9998 7.75V4M6.34298 17.6569L8.99463 15.0052M6.34298 6.34303L8.99469 8.99474M15.005 8.9948L17.6567 6.34315M15 15L17.6567 17.6567" stroke="white" stroke-width="1.25" stroke-linecap="round" stroke-linejoin="round"/>
</svg>
