<svg viewBox="0 0 20 20" fill="none" xmlns="http://www.w3.org/2000/svg">
<path d="M10.0003 5.62467C12.7589 5.62467 15.0857 7.47351 15.8091 9.99968C15.0857 12.5258 12.7589 14.3746 10.0002 14.3746C7.24164 14.3746 4.91487 12.5258 4.19141 9.99968C4.91487 7.47351 7.24165 5.62467 10.0003 5.62467ZM10.0003 5.62467V3.33301M6.6431 6.64251L5.00026 4.99967M13.3574 6.64251L15.0003 4.99967M11.8753 9.99968C11.8753 11.0352 11.0358 11.8747 10.0003 11.8747C8.96473 11.8747 8.12526 11.0352 8.12526 9.99968C8.12526 8.96414 8.96473 8.12468 10.0003 8.12468C11.0358 8.12468 11.8753 8.96414 11.8753 9.99968Z" stroke="white" stroke-width="1.25" stroke-linecap="round" stroke-linejoin="round"/>
</svg>
