<svg viewBox="0 0 15 16" fill="none" xmlns="http://www.w3.org/2000/svg">
<path d="M4.8855 4.259C4.3135 4.3665 3.4705 5.3445 3.8425 5.7165L6.129 8.002L3.8425 10.2875C3.385 10.745 4.757 12.1155 5.2145 11.6585L7.501 9.373L9.7875 11.6585C10.245 12.116 11.6165 10.744 11.1595 10.2875L8.873 8.002L11.1595 5.7165C11.617 5.259 10.245 3.8885 9.7875 4.3455L7.501 6.631L5.2145 4.3455C5.128 4.26 5.0175 4.234 4.886 4.259H4.8855ZM7.5 0.5C3.3575 0.5 0 3.858 0 8C0 12.142 3.3575 15.5 7.5 15.5C11.6425 15.5 15 12.142 15 8C15 3.858 11.6425 0.5 7.5 0.5ZM7.5 2.375C10.6065 2.375 13.125 4.8935 13.125 8C13.125 11.1065 10.6065 13.625 7.5 13.625C4.3935 13.625 1.875 11.1065 1.875 8C1.8755 4.8935 4.3935 2.375 7.5 2.375Z" fill="currentColor"/>
</svg>
