<svg viewBox="0 0 24 24" fill="none" xmlns="http://www.w3.org/2000/svg">
<path fill-rule="evenodd" clip-rule="evenodd" d="M6.49984 7.75C7.1902 7.75 7.74984 7.19036 7.74984 6.5C7.74984 5.80964 7.1902 5.25 6.49984 5.25C5.80948 5.25 5.24984 5.80964 5.24984 6.5C5.24984 7.19036 5.80948 7.75 6.49984 7.75ZM6.49984 13.25C7.1902 13.25 7.74984 12.6904 7.74984 12C7.74984 11.3096 7.1902 10.75 6.49984 10.75C5.80948 10.75 5.24984 11.3096 5.24984 12C5.24984 12.6904 5.80948 13.25 6.49984 13.25ZM7.74984 17.5C7.74984 18.1904 7.1902 18.75 6.49984 18.75C5.80948 18.75 5.24984 18.1904 5.24984 17.5C5.24984 16.8097 5.80948 16.25 6.49984 16.25C7.1902 16.25 7.74984 16.8097 7.74984 17.5ZM11.9999 7.75C12.6903 7.75 13.2499 7.19036 13.2499 6.5C13.2499 5.80964 12.6903 5.25 11.9999 5.25C11.3096 5.25 10.7499 5.80964 10.7499 6.5C10.7499 7.19036 11.3096 7.75 11.9999 7.75ZM13.2499 12C13.2499 12.6904 12.6903 13.25 11.9999 13.25C11.3096 13.25 10.7499 12.6904 10.7499 12C10.7499 11.3096 11.3096 10.75 11.9999 10.75C12.6903 10.75 13.2499 11.3096 13.2499 12ZM11.9999 18.75C12.6903 18.75 13.2499 18.1904 13.2499 17.5C13.2499 16.8097 12.6903 16.25 11.9999 16.25C11.3096 16.25 10.7499 16.8097 10.7499 17.5C10.7499 18.1904 11.3096 18.75 11.9999 18.75ZM18.75 6.5C18.75 7.19036 18.1904 7.75 17.5 7.75C16.8096 7.75 16.25 7.19036 16.25 6.5C16.25 5.80964 16.8096 5.25 17.5 5.25C18.1904 5.25 18.75 5.80964 18.75 6.5ZM17.5 13.25C18.1904 13.25 18.75 12.6904 18.75 12C18.75 11.3096 18.1904 10.75 17.5 10.75C16.8096 10.75 16.25 11.3096 16.25 12C16.25 12.6904 16.8096 13.25 17.5 13.25ZM18.75 17.5C18.75 18.1904 18.1904 18.75 17.5 18.75C16.8096 18.75 16.25 18.1904 16.25 17.5C16.25 16.8097 16.8096 16.25 17.5 16.25C18.1904 16.25 18.75 16.8097 18.75 17.5Z" fill="white"/>
</svg>
