<svg viewBox="0 0 16 12" fill="none" xmlns="http://www.w3.org/2000/svg">
<path d="M1.03611 6.13936C0.988007 6.00319 0.987961 5.85575 1.03598 5.71955C2.0028 2.97741 4.74444 1 7.97561 1C11.2053 1 13.9459 2.97557 14.9139 5.71573C14.962 5.8519 14.962 5.99933 14.914 6.13553C13.9472 8.87768 11.2056 10.8551 7.97439 10.8551C4.74473 10.8551 2.00413 8.87952 1.03611 6.13936Z" stroke="currentColor" stroke-linecap="round" stroke-linejoin="round"/>
<path d="M10.0642 5.92754C10.0642 7.0161 9.12883 7.89856 7.97504 7.89856C6.82126 7.89856 5.88594 7.0161 5.88594 5.92754C5.88594 4.83898 6.82126 3.95653 7.97504 3.95653C9.12883 3.95653 10.0642 4.83898 10.0642 5.92754Z" stroke="currentColor" stroke-linecap="round" stroke-linejoin="round"/>
</svg>
