<svg viewBox="0 0 767 784" fill="none" xmlns="http://www.w3.org/2000/svg">
<path fill-rule="evenodd" clip-rule="evenodd" d="M161.121 392C161.121 366.595 165.341 342.24 172.871 319.395L41.0577 218.738C15.3679 270.898 0.894043 329.671 0.894043 392C0.894043 454.275 15.3501 513.013 41.0043 565.138L172.747 464.284C165.287 441.546 161.121 417.28 161.121 392Z" fill="#FBBC05"/>
<path fill-rule="evenodd" clip-rule="evenodd" d="M392.561 160.889C447.75 160.889 497.599 180.444 536.765 212.444L650.705 98.6665C581.273 38.222 492.258 0.888687 392.561 0.888687C237.781 0.888687 104.757 89.4042 41.0576 218.738L172.871 319.395C203.243 227.2 289.819 160.889 392.561 160.889Z" fill="#EB4335"/>
<path fill-rule="evenodd" clip-rule="evenodd" d="M392.561 623.111C289.819 623.111 203.243 556.8 172.871 464.604L41.0576 565.244C104.757 694.595 237.781 783.111 392.561 783.111C488.092 783.111 579.297 749.191 647.749 685.635L522.63 588.906C487.326 611.146 442.872 623.111 392.561 623.111Z" fill="#34A853"/>
<path fill-rule="evenodd" clip-rule="evenodd" d="M766.424 392C766.424 368.889 762.864 344 757.523 320.889H392.561V472H602.636C592.132 523.52 563.541 563.129 522.629 588.906L647.749 685.635C719.656 618.898 766.424 519.484 766.424 392Z" fill="#4285F4"/>
</svg>
