<svg viewBox="0 0 20 20" fill="none" xmlns="http://www.w3.org/2000/svg">
<path d="M18.88 0H1.12C0.5025 0 0 0.5025 0 1.12V18.88C0 19.4975 0.5025 20 1.12 20H18.8806C19.4975 20 20 19.4975 20 18.88V1.12C20 0.5025 19.4975 0 18.88 0ZM0.625 6.875H6.25V13.125H0.625V6.875ZM6.875 6.875H13.125V13.125H6.875V6.875ZM13.75 6.875H19.375V13.125H13.75V6.875ZM18.88 0.625C19.1531 0.625 19.375 0.846875 19.375 1.12V6.25H13.75V0.625H18.88ZM13.125 0.625V6.25H6.875V0.625H13.125ZM0.625 1.12C0.625 0.846875 0.846875 0.625 1.12 0.625H6.25V6.25H0.625V1.12ZM1.12 19.375C0.846875 19.375 0.625 19.1531 0.625 18.88V13.75H6.25V19.375H1.12ZM6.875 19.375V13.75H13.125V19.375H6.875ZM19.375 18.88C19.375 19.1531 19.1531 19.375 18.88 19.375H13.75V13.75H19.375V18.88Z" fill="currentColor"/>
</svg>
