<svg width="20" height="20" viewBox="0 0 20 20" fill="none" xmlns="http://www.w3.org/2000/svg">
<path d="M9.41667 7.91663H11.9167M9.41667 7.91663L8.16667 9.99996M9.41667 7.91663L11.7351 4.0525M11.9167 7.91663L13.1667 9.99996M11.9167 7.91663L16.3395 7.91661M13.1667 9.99996L11.9167 12.0833M13.1667 9.99996L15.4167 13.7499M11.9167 12.0833H9.41666M11.9167 12.0833L9.59814 15.9474M8.16667 9.99996L9.41666 12.0833M8.16667 9.99996L5.91666 6.25M9.41666 12.0833L4.9938 12.0833M16.7083 9.99998C16.7083 13.3367 14.0034 16.0416 10.6667 16.0416C7.38686 16.0416 4.625 13.2699 4.625 9.99998C4.625 6.66326 7.32995 3.95831 10.6667 3.95831C13.9465 3.95831 16.7083 6.73008 16.7083 9.99998Z" stroke="currentColor" stroke-width="1.5" stroke-linecap="round" stroke-linejoin="round"/>
</svg>
