<svg viewBox="0 0 21 20" fill="none" xmlns="http://www.w3.org/2000/svg">
<path fill-rule="evenodd" clip-rule="evenodd" d="M2.28662 10C2.28662 5.40444 5.98614 1.6875 10.5393 1.6875C15.0924 1.6875 18.792 5.40444 18.792 10C18.792 14.5956 15.0924 18.3125 10.5393 18.3125C5.98614 18.3125 2.28662 14.5956 2.28662 10ZM10.5393 0.1875C5.14836 0.1875 0.786621 4.5854 0.786621 10C0.786621 15.4146 5.14836 19.8125 10.5393 19.8125C15.9302 19.8125 20.292 15.4146 20.292 10C20.292 4.5854 15.9302 0.1875 10.5393 0.1875ZM11.2893 9.375C11.2893 8.96079 10.9535 8.625 10.5393 8.625C10.1251 8.625 9.78929 8.96079 9.78929 9.375V15C9.78929 15.4142 10.1251 15.75 10.5393 15.75C10.9535 15.75 11.2893 15.4142 11.2893 15V9.375ZM10.5392 7.5C11.225 7.5 11.781 6.94036 11.781 6.25C11.781 5.55964 11.225 5 10.5392 5C9.85345 5 9.2975 5.55964 9.2975 6.25C9.2975 6.94036 9.85345 7.5 10.5392 7.5Z" fill="currentColor"/>
</svg>
