<svg viewBox="0 0 16 16" fill="none" xmlns="http://www.w3.org/2000/svg">
<path fill-rule="evenodd" clip-rule="evenodd" d="M3.91602 7.99999C3.91602 5.74483 5.74419 3.91666 7.99935 3.91666C10.2545 3.91666 12.0827 5.74483 12.0827 7.99999C12.0827 10.2552 10.2545 12.0833 7.99935 12.0833C5.74419 12.0833 3.91602 10.2552 3.91602 7.99999ZM7.99935 2.41666C4.91576 2.41666 2.41602 4.9164 2.41602 7.99999C2.41602 11.0836 4.91576 13.5833 7.99935 13.5833C11.0829 13.5833 13.5827 11.0836 13.5827 7.99999C13.5827 4.9164 11.0829 2.41666 7.99935 2.41666ZM8.74935 7.66666C8.74935 7.25244 8.41356 6.91666 7.99935 6.91666C7.58513 6.91666 7.24935 7.25244 7.24935 7.66666V10.6667C7.24935 11.0809 7.58513 11.4167 7.99935 11.4167C8.41356 11.4167 8.74935 11.0809 8.74935 10.6667V7.66666ZM7.99935 6.66666C8.36754 6.66666 8.66602 6.36818 8.66602 5.99999C8.66602 5.6318 8.36754 5.33332 7.99935 5.33332C7.63116 5.33332 7.33268 5.6318 7.33268 5.99999C7.33268 6.36818 7.63116 6.66666 7.99935 6.66666Z" fill="currentColor"/>
</svg>
