<svg viewBox="0 0 20 20" fill="none" xmlns="http://www.w3.org/2000/svg">
<path d="M12.7273 6.36364C12.7273 6.60474 12.6315 6.83597 12.461 7.00646C12.2905 7.17695 12.0593 7.27273 11.8182 7.27273H4.54545C4.30435 7.27273 4.07312 7.17695 3.90263 7.00646C3.73214 6.83597 3.63636 6.60474 3.63636 6.36364C3.63636 6.12253 3.73214 5.8913 3.90263 5.72081C4.07312 5.55032 4.30435 5.45455 4.54545 5.45455H11.8182C12.0593 5.45455 12.2905 5.55032 12.461 5.72081C12.6315 5.8913 12.7273 6.12253 12.7273 6.36364ZM11.8182 9.09091H4.54545C4.30435 9.09091 4.07312 9.18669 3.90263 9.35718C3.73214 9.52766 3.63636 9.75889 3.63636 10C3.63636 10.2411 3.73214 10.4723 3.90263 10.6428C4.07312 10.8133 4.30435 10.9091 4.54545 10.9091H11.8182C12.0593 10.9091 12.2905 10.8133 12.461 10.6428C12.6315 10.4723 12.7273 10.2411 12.7273 10C12.7273 9.75889 12.6315 9.52766 12.461 9.35718C12.2905 9.18669 12.0593 9.09091 11.8182 9.09091ZM8.18182 12.7273H4.54545C4.30435 12.7273 4.07312 12.8231 3.90263 12.9935C3.73214 13.164 3.63636 13.3953 3.63636 13.6364C3.63636 13.8775 3.73214 14.1087 3.90263 14.2792C4.07312 14.4497 4.30435 14.5455 4.54545 14.5455H8.18182C8.42292 14.5455 8.65416 14.4497 8.82464 14.2792C8.99513 14.1087 9.09091 13.8775 9.09091 13.6364C9.09091 13.3953 8.99513 13.164 8.82464 12.9935C8.65416 12.8231 8.42292 12.7273 8.18182 12.7273ZM20 10V17.2727C20 17.996 19.7127 18.6897 19.2012 19.2012C18.6897 19.7127 17.996 20 17.2727 20H2.72727C2.00396 20 1.31026 19.7127 0.7988 19.2012C0.287337 18.6897 0 17.996 0 17.2727V2.72727C0 2.00396 0.287337 1.31026 0.7988 0.7988C1.31026 0.287337 2.00396 0 2.72727 0H13.6364C14.3597 0 15.0534 0.287337 15.5648 0.7988C16.0763 1.31026 16.3636 2.00396 16.3636 2.72727V9.09091H19.0909C19.332 9.09091 19.5632 9.18669 19.7337 9.35718C19.9042 9.52766 20 9.75889 20 10ZM14.5455 2.72727C14.5455 2.48617 14.4497 2.25494 14.2792 2.08445C14.1087 1.91396 13.8775 1.81818 13.6364 1.81818H2.72727C2.48617 1.81818 2.25494 1.91396 2.08445 2.08445C1.91396 2.25494 1.81818 2.48617 1.81818 2.72727V17.2727C1.81818 17.5138 1.91396 17.7451 2.08445 17.9156C2.25494 18.086 2.48617 18.1818 2.72727 18.1818H14.5455V2.72727ZM18.1818 10.9091H16.3636V18.1818H17.2727C17.5138 18.1818 17.7451 18.086 17.9156 17.9156C18.086 17.7451 18.1818 17.5138 18.1818 17.2727V10.9091Z" fill="currentColor"/>
</svg>
