<svg viewBox="0 0 20 20" fill="none" xmlns="http://www.w3.org/2000/svg">
<path d="M8.74967 7.91632L11.2497 7.91632M8.74967 7.91632L7.49967 9.99966M8.74967 7.91632L11.0682 4.0522M11.2497 7.91632L12.4997 9.99966M11.2497 7.91632L15.6725 7.91631M12.4997 9.99966L11.2497 12.083M12.4997 9.99966L14.7497 13.7496M11.2497 12.083L8.74966 12.083M11.2497 12.083L8.93115 15.9471M7.49967 9.99966L8.74966 12.083M7.49967 9.99966L5.24966 6.24969M8.74966 12.083L4.32681 12.083M16.0413 9.99967C16.0413 13.3364 13.3364 16.0413 9.99967 16.0413C6.71987 16.0413 3.95801 13.2696 3.95801 9.99967C3.95801 6.66295 6.66295 3.95801 9.99967 3.95801C13.2795 3.95801 16.0413 6.72978 16.0413 9.99967Z" stroke="white" stroke-width="1.25" stroke-linecap="round" stroke-linejoin="round"/>
</svg>
