<svg width="17" height="16" viewBox="0 0 20 19" fill="none" xmlns="http://www.w3.org/2000/svg">
<path d="M16.0412 0C16.2433 0 16.4309 0.0974105 16.5474 0.258219L16.5928 0.330919L19.9321 6.59221L19.9678 6.67755L19.9775 6.70906L19.9917 6.77348L19.9994 6.84682L19.9977 6.92966L20 6.87574C20 6.96333 19.982 7.04676 19.9494 7.12252L19.9254 7.17219L19.8916 7.2277L19.8477 7.28479L10.4989 18.0892C10.4155 18.2012 10.3012 18.2751 10.1771 18.3106L10.1288 18.3223L10.0476 18.3336L9.99875 18.3353L9.91491 18.3296L9.84399 18.3162L9.75789 18.288L9.73648 18.2778C9.66122 18.2446 9.59204 18.195 9.5342 18.1299L0.140115 7.2727L0.0883512 7.19969L0.0484219 7.1221L0.0195187 7.03934L0.000233278 6.93008L0 6.8239L0.0123846 6.74164L0.0203771 6.70897L0.0486301 6.62888L0.0714161 6.58163L3.40511 0.330919C3.50016 0.152691 3.6744 0.0330036 3.87112 0.00586732L3.95664 0H16.0412ZM13.2543 7.50081H6.74107L9.99975 15.9684L13.2543 7.50081ZM5.40262 7.50081H1.98892L8.13372 14.5999L5.40262 7.50081ZM18.0065 7.50081H14.5953L11.8675 14.5941L18.0065 7.50081ZM6.68523 1.2493H4.33084L1.66305 6.25067H5.35095L6.68523 1.2493ZM12.0183 1.2493H7.9787L6.64442 6.25067H13.3518L12.0183 1.2493ZM15.6662 1.2493H13.3118L14.6461 6.25067H18.3323L15.6662 1.2493Z" fill="currentColor"/>
</svg>
