<svg viewBox="0 0 20 20" fill="none" xmlns="http://www.w3.org/2000/svg">
<path d="M6.9202 6.77833L5.75391 6.10497L4.50391 8.27003L5.67022 8.94341V11.0566L4.50393 11.73L5.75393 13.895L6.92021 13.2217L8.75032 14.2783V15.625L11.2503 15.625V14.2783L13.0805 13.2217L14.2467 13.895L15.4967 11.73L14.3305 11.0567L14.3305 8.94336L15.4967 8.27003L14.2467 6.10497L13.0805 6.7783L11.2503 5.72167V4.375H8.75032V5.7217L6.9202 6.77833Z" stroke="currentColor" stroke-width="1.5" stroke-linecap="round" stroke-linejoin="round"/>
<path d="M11.667 10C11.667 10.9205 10.9208 11.6667 10.0004 11.6667C9.07988 11.6667 8.33368 10.9205 8.33368 10C8.33368 9.07952 9.07988 8.33333 10.0004 8.33333C10.9208 8.33333 11.667 9.07952 11.667 10Z" stroke="currentColor" stroke-width="1.5" stroke-linecap="round" stroke-linejoin="round"/>
</svg>
