<svg viewBox="0 0 9 11" fill="none" xmlns="http://www.w3.org/2000/svg">
<path fill-rule="evenodd" clip-rule="evenodd" d="M5.1515 2.15189C5.1515 1.23142 5.9011 0.485229 6.82575 0.485229C7.7504 0.485229 8.5 1.23142 8.5 2.15189C8.5 3.07237 7.7504 3.81856 6.82575 3.81856C6.35885 3.81856 5.9369 3.62821 5.63355 3.32196L3.31585 4.89998C3.33725 5.00648 3.3485 5.11648 3.3485 5.22883C3.3485 5.45133 3.3045 5.66403 3.22479 5.85843L5.76615 7.52813C6.0546 7.29328 6.42365 7.15188 6.82575 7.15188C7.7504 7.15188 8.5 7.89808 8.5 8.81858C8.5 9.73903 7.7504 10.4852 6.82575 10.4852C5.9011 10.4852 5.1515 9.73903 5.1515 8.81858C5.1515 8.57748 5.2031 8.34798 5.29585 8.14078L2.77503 6.48458C2.48098 6.74013 2.0958 6.89548 1.67424 6.89548C0.749585 6.89548 0 6.14928 0 5.22883C0 4.30834 0.749585 3.56215 1.67424 3.56215C2.20595 3.56215 2.67927 3.80885 2.98572 4.19282L5.23195 2.66344C5.1797 2.50202 5.1515 2.33003 5.1515 2.15189Z" fill="#232175"/>
</svg>
