<svg viewBox="0 0 663 660" fill="none" xmlns="http://www.w3.org/2000/svg">
<path fill-rule="evenodd" clip-rule="evenodd" d="M297.885 21.9152C310.062 -7.30508 351.455 -7.30508 363.632 21.9152L427.768 175.842C432.942 188.263 445.078 196.354 458.535 196.354H627.195C658.208 196.354 673.738 233.849 651.808 255.777L515.398 392.188C506.838 400.748 503.595 413.274 506.918 424.914L561.015 614.251C570.148 646.221 534.502 672.244 506.835 653.801L349.248 548.741C338.052 541.278 323.465 541.278 312.268 548.744L154.943 653.628C127.19 672.128 91.4244 646.021 100.588 613.951L154.598 424.914C157.924 413.274 154.677 400.748 146.118 392.188L10.3814 256.451C-11.7956 234.274 3.91111 196.354 35.2744 196.354H202.981C216.438 196.354 228.574 188.263 233.75 175.842L297.885 21.9152Z" fill="currentColor"/>
</svg>
