<svg viewBox="0 0 20 20" fill="none" xmlns="http://www.w3.org/2000/svg">
<path d="M5.72855 5.72794L8.08557 8.08496M11.9157 8.08496L14.2728 5.72794M5.72855 14.2721L8.08557 11.9151M11.9157 11.9151L14.2728 14.2721M16.0423 10C16.0423 6.66332 13.3374 3.95837 10.0007 3.95837C6.66393 3.95837 3.95898 6.66332 3.95898 10C3.95898 13.3368 6.66393 16.0417 10.0007 16.0417C13.3374 16.0417 16.0423 13.3368 16.0423 10ZM12.709 10C12.709 8.50427 11.4964 7.29171 10.0007 7.29171C8.50488 7.29171 7.29232 8.50427 7.29232 10C7.29232 11.4958 8.50488 12.7084 10.0007 12.7084C11.4964 12.7084 12.709 11.4958 12.709 10Z" stroke="currentColor" stroke-opacity="0.82" stroke-width="1.5" stroke-linecap="round" stroke-linejoin="round"/>
</svg>
