<svg width="20" height="20" viewBox="0 0 20 20" fill="none" xmlns="http://www.w3.org/2000/svg">
<path d="M16.3743 10C16.3743 13.3367 13.6694 16.0417 10.3327 16.0417M16.3743 10C16.3743 6.66329 13.6694 3.95834 10.3327 3.95834M16.3743 10H4.29102M10.3327 16.0417C6.99596 16.0417 4.29102 13.3367 4.29102 10M10.3327 16.0417C11.8285 16.0417 13.041 13.3367 13.041 10C13.041 6.66329 11.8285 3.95834 10.3327 3.95834M10.3327 16.0417C8.83691 16.0417 7.62435 13.3367 7.62435 10C7.62435 6.66329 8.83691 3.95834 10.3327 3.95834M4.29102 10C4.29102 6.66329 6.99596 3.95834 10.3327 3.95834" stroke="currentColor" stroke-width="1.5" stroke-linecap="round" stroke-linejoin="round"/>
</svg>
