<svg viewBox="0 0 13 14" fill="none" xmlns="http://www.w3.org/2000/svg">
<path d="M0.577778 0.311523C0.257689 0.311523 0 0.569212 0 0.889301V5.51152C0 5.83161 0.257689 6.0893 0.577778 6.0893H5.2C5.52009 6.0893 5.77778 5.83161 5.77778 5.51152V0.889301C5.77778 0.569212 5.52009 0.311523 5.2 0.311523H0.577778ZM7.51111 0.311523C7.19102 0.311523 6.93333 0.569212 6.93333 0.889301V5.51152C6.93333 5.83161 7.19102 6.0893 7.51111 6.0893H12.1333C12.4534 6.0893 12.7111 5.83161 12.7111 5.51152V0.889301C12.7111 0.569212 12.4534 0.311523 12.1333 0.311523H7.51111ZM0.577778 7.24486C0.257689 7.24486 0 7.50255 0 7.82263V12.4449C0 12.7649 0.257689 13.0226 0.577778 13.0226H5.2C5.52009 13.0226 5.77778 12.7649 5.77778 12.4449V7.82263C5.77778 7.50255 5.52009 7.24486 5.2 7.24486H0.577778ZM7.51111 7.24486C7.19102 7.24486 6.93333 7.50255 6.93333 7.82263V12.4449C6.93333 12.7649 7.19102 13.0226 7.51111 13.0226H12.1333C12.4534 13.0226 12.7111 12.7649 12.7111 12.4449V7.82263C12.7111 7.50255 12.4534 7.24486 12.1333 7.24486H7.51111Z" fill="currentColor"/>
</svg>
