<svg viewBox="0 0 22 18" fill="none" xmlns="http://www.w3.org/2000/svg">
<path d="M5 5H9" stroke="currentColor" stroke-width="1.5" stroke-linecap="round" stroke-linejoin="round"/>
<path d="M21 7.5C21 7.4226 21 6.96726 20.9977 6.9346C20.9623 6.43384 20.5328 6.03496 19.9935 6.00214C19.9583 6 19.9167 6 19.8333 6H17.2308C15.4465 6 14 7.3431 14 9C14 10.6569 15.4465 12 17.2308 12H19.8333C19.9167 12 19.9583 12 19.9935 11.9979C20.5328 11.965 20.9623 11.5662 20.9977 11.0654C21 11.0327 21 10.5774 21 10.5" stroke="currentColor" stroke-width="1.5" stroke-linecap="round"/>
<path d="M17.25 9C17.25 9.13807 17.1381 9.25 17 9.25C16.8619 9.25 16.75 9.13807 16.75 9C16.75 8.86193 16.8619 8.75 17 8.75C17.1381 8.75 17.25 8.86193 17.25 9Z" fill="#1C274C" stroke="currentColor" stroke-width="1.5"/>
<path d="M12 1C15.7712 1 17.6569 1 18.8284 2.17157C19.6366 2.97975 19.8873 4.1277 19.965 6M9 17H12C15.7712 17 17.6569 17 18.8284 15.8284C19.6366 15.0203 19.8873 13.8723 19.965 12M8 1.00093C4.8857 1.01004 3.23467 1.10848 2.17157 2.17157C1 3.34315 1 5.22876 1 9C1 12.7712 1 14.6569 2.17157 15.8284C2.82475 16.4816 3.69989 16.7706 5 16.8985" stroke="currentColor" stroke-width="1.5" stroke-linecap="round"/>
</svg>
